# xmcd
#
# Track frame offsets:
#	187
#	15835
#	31075
#	46837
#	60127
#	75837
#	87572
#	103612
#	115952
#	129577
#
# Disc length: 1911 seconds
#
# Revision: 4
# Processed by: cddbd v1.5.2PL0 Copyright (c) Steve Scherf et al.
# Submitted via: EZCDAudioConverter 6.0.2.1
#
DISCID=6407750a
DTITLE=Baillie And The Boys - The Lights Of Home
DYEAR=1990
DGENRE=Country
TTITLE0=Can't Stand To Be Unhappy
TTITLE1=So Strong
TTITLE2=The Lights Of Home
TTITLE3=Perfect
TTITLE4=I Love Our Love
TTITLE5=I'd Love To
TTITLE6=Treat Me Like A Stranger
TTITLE7=On The Far Side
TTITLE8=Fool Such As I
TTITLE9=You Better Do Better
EXTD=
EXTT0=
EXTT1=
EXTT2=
EXTT3=
EXTT4=
EXTT5=
EXTT6=
EXTT7=
EXTT8=
EXTT9=
PLAYORDER=
